<svg xmlns="http://www.w3.org/2000/svg" version="1.1" xmlns:xlink="http://www.w3.org/1999/xlink" xmlns:svgjs="http://svgjs.com/svgjs" width="40" height="40"><svg id="SvgjsSvg1000" data-name="Layer 1" xmlns="http://www.w3.org/2000/svg" viewBox="0 0 24 24" stroke-width="2" width="40" height="40" color="#000000"><defs><style>.cls-637b7d2ff95e86b59c579f9e-1{fill:none;stroke:currentColor;stroke-miterlimit:10;}</style></defs><path class="cls-637b7d2ff95e86b59c579f9e-1" d="M17.47,1.52a3.33,3.33,0,0,0-2.61,1.16,3.31,3.31,0,0,0-2.6-1.16A2.89,2.89,0,0,0,9.14,4.1c0,3.87,5.72,6,5.72,6s5.73-2.14,5.73-6A2.89,2.89,0,0,0,17.47,1.52Z"></path><line class="cls-637b7d2ff95e86b59c579f9e-1" x1="2.45" y1="1.52" x2="6.27" y2="1.52"></line><line class="cls-637b7d2ff95e86b59c579f9e-1" x1="4.36" y1="10.11" x2="4.36" y2="1.52"></line><line class="cls-637b7d2ff95e86b59c579f9e-1" x1="2.45" y1="10.11" x2="6.27" y2="10.11"></line><polyline class="cls-637b7d2ff95e86b59c579f9e-1" points="7.23 14.89 7.23 15.84 4.36 19.66 1.5 15.84 1.5 14.89"></polyline><line class="cls-637b7d2ff95e86b59c579f9e-1" x1="4.36" y1="23.48" x2="4.36" y2="19.66"></line><rect class="cls-637b7d2ff95e86b59c579f9e-1" x="10.09" y="15.84" width="4.77" height="6.68" rx="2.39"></rect><path class="cls-637b7d2ff95e86b59c579f9e-1" d="M22.5,14.89v5.25a2.39,2.39,0,0,1-2.39,2.38h0a2.39,2.39,0,0,1-2.38-2.38V14.89"></path></svg><style>@media (prefers-color-scheme: light) { :root { filter: none; } }
</style></svg>